<svg width="48" height="48" viewBox="0 0 48 48" fill="none" xmlns="http://www.w3.org/2000/svg">
<path d="M18.6955 18.3249V14.1374C22.8259 13.4938 26.5893 11.3919 29.3044 8.2124V36.3374H18.708V30.5499M18.6955 18.3249L5.5 24.1124V28.2499L18.6955 22.4624V18.3249ZM18.6955 18.3249L22.9316 16.4749V20.5749L18.708 22.4499V26.4999M18.708 26.4999L22.9441 24.6499V28.6874L18.708 30.5499M18.708 26.4999V30.5499M18.708 26.4999L5.5 32.2874V36.3374L18.708 30.5499" stroke="#141414" stroke-linecap="round" stroke-linejoin="round"/>
<path d="M18.708 26.5002V22.4502L18.6955 22.4627L5.5 28.2502V32.3002L18.708 26.5002Z" stroke="#141414" stroke-linecap="round" stroke-linejoin="round"/>
<path d="M29.3169 36.3374H42.4999V18.9874L29.3044 8.2124L29.3169 36.3374Z" stroke="#141414" stroke-linecap="round" stroke-linejoin="round"/>
<path d="M42.5 36.3374H5.5" stroke="#141414" stroke-linecap="round" stroke-linejoin="round"/>
<path d="M38.5 5.5H9.5C7.29086 5.5 5.5 7.29086 5.5 9.5V38.5C5.5 40.7091 7.29086 42.5 9.5 42.5H38.5C40.7091 42.5 42.5 40.7091 42.5 38.5V9.5C42.5 7.29086 40.7091 5.5 38.5 5.5Z" stroke="#141414" stroke-linecap="round" stroke-linejoin="round"/>
</svg>
