<svg width="94" height="46" viewBox="0 0 94 46" fill="none" xmlns="http://www.w3.org/2000/svg">
<path d="M42.3164 19.3465C41.7728 19.3465 41.5048 19.5637 41.5048 19.9934V30.4023C41.5048 32.9461 43.2315 34.2203 46.6931 34.2203C49.4415 34.2203 51.5358 33.4499 52.9741 31.9141C54.2471 30.557 54.8793 28.7523 54.8793 26.4831C54.8793 24.2734 54.138 22.5286 52.6617 21.2567C51.1791 19.9835 49.0571 19.3463 46.2845 19.3463M52.8845 18.0702C58.4854 18.9946 61.282 21.8971 61.282 26.7712C61.282 29.5641 60.173 31.8089 57.9561 33.5029C55.7348 35.1997 52.8531 36.0437 49.3115 36.0437C48.0228 36.0437 38.2245 36.0927 35.6459 36.0927V3.42676C37.3661 3.42676 41.5113 3.59265 43.7348 3.5658C55.6949 3.42661 59.1711 6.1694 59.1711 11.3754C59.1711 14.6334 57.0766 16.8616 52.8847 18.07M41.5048 16.1633C41.5048 16.8892 41.6031 17.3315 41.8013 17.4898C42 17.6442 42.5564 17.7243 43.4755 17.7243H44.3211C50.1212 17.7243 53.0232 15.7098 53.0232 11.682C53.0232 7.38617 50.4137 5.24049 45.1977 5.24049C43.799 5.24049 42.8626 5.37449 42.3803 5.63921C41.7955 5.96715 41.5049 6.65373 41.5049 7.69244V16.1633H41.5048ZM74.8702 15.0913C76.3711 15.0913 77.8008 15.283 79.1604 15.67C80.9766 16.1854 81.8828 16.915 81.8828 17.8573C81.8828 20.3086 81.3401 21.5328 80.2571 21.5328C79.7227 21.5328 79.1845 21.0906 78.6302 20.2043C78.5719 20.1019 78.4706 19.9224 78.3354 19.6716C77.0135 17.3983 75.6545 16.2627 74.2526 16.2627C72.1224 16.2627 70.4571 17.4093 69.2552 19.6999C68.3493 21.4494 67.8971 23.2547 67.8971 25.1205C67.8971 27.442 68.4957 29.4172 69.6988 31.0456C70.968 32.7642 72.7304 33.7532 74.9904 34.0157C75.4011 34.0632 76.757 34.2082 79.5963 33.2095C80.2382 32.9843 80.7901 32.6556 81.3953 32.3685C81.6982 32.2204 82.3153 32.1155 82.4005 32.5884C82.4922 33.095 82.0529 33.6387 81.7207 33.9639C81.1825 34.4916 79.3211 36.2328 74.4709 36.5849C74.2552 36.603 74.0446 36.6067 73.8344 36.6067C70.1659 36.6067 67.3054 35.4843 65.2546 33.2371C63.4595 31.2829 62.5615 28.879 62.5615 26.0147C62.5615 22.9906 63.5759 20.4718 65.6113 18.463C67.8584 16.2168 70.9477 15.0916 74.87 15.0916M84.0322 16.0986C84.0322 16.0986 85.4689 16.1757 86.5171 16.2597C87.9519 16.3704 88.8241 16.3903 88.8241 16.3903L88.8562 36.0774H84.0316M84.0389 11.2401C84.0389 9.7758 85.0827 8.5884 86.3737 8.5884C87.6648 8.5884 88.7086 9.7758 88.7086 11.2401C88.7086 12.6984 87.6651 13.8851 86.3739 13.8851C85.0827 13.8851 84.0389 12.6984 84.0389 11.2401ZM35.82 41.4185C35.863 41.8762 36.2089 42.0461 36.6363 42.0461C36.9358 42.0461 37.4607 41.9838 37.4381 41.5698C37.4184 41.1487 36.8381 41.1028 36.2577 40.9733C35.6705 40.8442 35.1012 40.6335 35.1012 39.9009C35.1012 39.11 35.9516 38.8652 36.6086 38.8652C37.3484 38.8652 38.0186 39.1741 38.1169 39.9781H37.2851C37.2155 39.6012 36.9014 39.4964 36.5527 39.4964C36.3219 39.4964 35.8965 39.5517 35.8965 39.8659C35.8965 40.2558 36.4812 40.3119 37.0697 40.4446C37.6474 40.5772 38.2342 40.7841 38.2342 41.4981C38.2342 42.3613 37.3689 42.674 36.6218 42.674C35.7159 42.674 35.0377 42.2674 35.0225 41.4182M40.7482 42.046C40.0344 42.046 39.7198 41.3943 39.7198 40.766C39.7198 40.1449 40.0344 39.4962 40.7482 39.4962C41.4613 39.4962 41.7712 40.1447 41.7712 40.7658C41.7712 41.3941 41.4613 42.0457 40.7482 42.0457M40.7482 42.674C41.9054 42.674 42.5695 41.8756 42.5695 40.7657C42.5695 39.6623 41.9052 38.8649 40.7482 38.8649C39.588 38.8649 38.9238 39.6621 38.9238 40.7657C38.9238 41.8756 39.588 42.674 40.7482 42.674ZM43.4835 38.9644H44.2367V39.4645H44.2563C44.495 39.1101 44.7959 38.8653 45.3682 38.8653C45.8081 38.8653 46.2181 39.0541 46.3779 39.4643C46.6466 39.0969 46.9895 38.8653 47.5116 38.8653C48.2711 38.8653 48.7192 39.2021 48.7192 40.0833V42.5737H47.9254V40.4666C47.9254 39.8947 47.8868 39.4967 47.2678 39.4967C46.7296 39.4967 46.498 39.8516 46.498 40.4574V42.5739H45.7042V40.2561C45.7042 39.762 45.5505 39.4968 45.0676 39.4968C44.6561 39.4968 44.2773 39.8334 44.2773 40.4298V42.5739H43.4837M51.4639 42.046C50.7522 42.046 50.4361 41.3943 50.4361 40.766C50.4361 40.1449 50.7519 39.4962 51.4639 39.4962C52.173 39.4962 52.489 40.1447 52.489 40.7658C52.489 41.3941 52.1732 42.0457 51.464 42.0457M51.464 42.674C52.6212 42.674 53.2852 41.8756 53.2852 40.7657C53.2852 39.6623 52.6209 38.8649 51.464 38.8649C50.3037 38.8649 49.6396 39.6621 49.6396 40.7657C49.6396 41.8756 50.3038 42.674 51.464 42.674ZM54.7998 41.4185C54.8428 41.8762 55.1902 42.0461 55.6162 42.0461C55.9142 42.0461 56.439 41.9838 56.4174 41.5698C56.3992 41.1487 55.8194 41.1028 55.2377 40.9733C54.652 40.8442 54.0819 40.6335 54.0819 39.9009C54.0819 39.11 54.9315 38.8652 55.5886 38.8652C56.3284 38.8652 56.9986 39.1741 57.0968 39.9781H56.2665C56.1956 39.6012 55.8802 39.4964 55.5323 39.4964C55.3007 39.4964 54.876 39.5517 54.876 39.8659C54.876 40.2558 55.4632 40.3119 56.0466 40.4446C56.6284 40.5772 57.2154 40.7841 57.2154 41.4981C57.2154 42.3613 56.3486 42.674 55.603 42.674C54.6941 42.674 54.0176 42.2674 54.0051 41.4182M58.3612 40.7727C58.3612 40.027 58.6996 39.2369 59.5394 39.2369C60.4739 39.2369 60.8037 40.0269 60.8037 40.7727C60.8037 41.5211 60.4739 42.3106 59.5396 42.3106C58.6998 42.3106 58.3612 41.5211 58.3612 40.7727ZM61.2415 37.5862H60.8041V39.6568H60.7885C60.6003 39.1372 60.0764 38.8653 59.5396 38.8653C58.443 38.8653 57.919 39.7567 57.919 40.7727C57.919 41.7961 58.4429 42.6802 59.5396 42.6802C60.0625 42.6802 60.6357 42.3616 60.8235 41.8908H60.8375V42.5737H61.2415V37.5862ZM62.3395 42.5735H62.7781V38.9702H62.3397V42.5737L62.3395 42.5735ZM62.3395 38.2931H62.7781V37.5849H62.3397V38.2933L62.3395 38.2931ZM65.263 39.3382H64.5506V42.5737H64.1113V39.3384H63.4954V38.9704H64.1113V38.6439C64.1035 38.0177 64.2811 37.5864 64.9831 37.5864L65.3523 37.6134V37.9944L65.032 37.9573C64.544 37.9573 64.5588 38.2663 64.5506 38.6547V38.9704H65.263M68.9625 40.893C68.9952 39.8791 68.5355 38.8653 67.3776 38.8653C66.2321 38.8653 65.7514 39.823 65.7514 40.7727C65.7514 41.7989 66.2321 42.6802 67.3779 42.6802C68.2859 42.6802 68.7576 42.2062 68.948 41.3863H68.5071C68.3673 41.9314 68.0193 42.3107 67.3777 42.3107C66.5329 42.3107 66.1981 41.5357 66.1916 40.8929M66.1916 40.5226C66.2598 39.8659 66.6582 39.2369 67.3777 39.2369C68.09 39.2369 68.5023 39.8579 68.5226 40.5226H66.1915H66.1916ZM69.805 38.9702H70.2097V39.8172H70.2243C70.4488 39.237 70.9389 38.8957 71.5868 38.9242V39.3602C70.7895 39.3194 70.2468 39.9068 70.2468 40.6556V42.5738H69.805M75.1615 40.893C75.1956 39.8791 74.7345 38.8653 73.576 38.8653C72.4318 38.8653 71.9495 39.823 71.9495 40.7727C71.9495 41.7989 72.4318 42.6802 73.576 42.6802C74.4833 42.6802 74.959 42.2062 75.1476 41.3863H74.7062C74.5676 41.9314 74.2181 42.3107 73.5758 42.3107C72.7303 42.3107 72.3967 41.5357 72.3894 40.8929M72.3894 40.5226C72.458 39.8659 72.8557 39.2369 73.5758 39.2369C74.2879 39.2369 74.6994 39.8579 74.7215 40.5226H72.3892H72.3894ZM75.9974 38.9702H76.4363V39.5949H76.4511C76.6112 39.159 77.0956 38.8653 77.604 38.8653C78.6155 38.8653 78.9206 39.3974 78.9206 40.256V42.5738H78.4823V40.3243C78.4823 39.7028 78.28 39.237 77.5667 39.237C76.8676 39.237 76.4513 39.7682 76.4364 40.4731V42.5737H75.9973M80.7022 38.9702H81.4355V39.3382H80.702V41.7703C80.702 42.0582 80.7441 42.2282 81.0593 42.25L81.4353 42.2282V42.6027L81.0427 42.6182C80.4595 42.6182 80.2562 42.423 80.2614 41.805V39.3384H79.6351V38.9704H80.2615V37.8857H80.7019M85.3512 40.893C85.3882 39.8791 84.9242 38.8653 83.7686 38.8653C82.6225 38.8653 82.1395 39.823 82.1395 40.7727C82.1395 41.7989 82.6225 42.6802 83.7686 42.6802C84.6745 42.6802 85.1507 42.2062 85.3396 41.3863H84.8975C84.7586 41.9314 84.4082 42.3107 83.7687 42.3107C82.9217 42.3107 82.5871 41.5357 82.5817 40.8929M82.5817 40.5226C82.6499 39.8659 83.0498 39.2369 83.7686 39.2369C84.4795 39.2369 84.891 39.8579 84.9122 40.5226H82.5814H82.5817ZM88.3529 40.0272C88.3326 39.4841 87.9141 39.237 87.41 39.237C87.0212 39.237 86.5604 39.3907 86.5604 39.858C86.5604 40.2502 87.0059 40.3887 87.3059 40.4667L87.893 40.6002C88.3947 40.6767 88.9211 40.9733 88.9211 41.5979C88.9211 42.3793 88.1433 42.6803 87.4731 42.6803C86.6357 42.6803 86.0649 42.2904 85.9934 41.4093H86.4353C86.4688 42.0032 86.9082 42.3109 87.4936 42.3109C87.9087 42.3109 88.4787 42.1298 88.4787 41.6258C88.4787 41.2088 88.0868 41.066 87.6893 40.9734L87.1249 40.8443C86.5526 40.6891 86.1175 40.4909 86.1175 39.8794C86.1175 39.1469 86.8391 38.8656 87.4727 38.8656C88.1918 38.8656 88.765 39.2431 88.7937 40.0275M3.56108 31.5985C4.67752 28.2761 7.8578 26.4193 10.6207 24.6147C12.6605 23.2821 14.742 22.0179 16.8022 20.7195C17.5457 20.2533 18.2755 19.7735 19.0139 19.3071C20.7668 18.2008 22.1608 16.5964 23.173 14.8066C23.6857 13.8946 24.1088 12.9499 24.5188 11.9887C25.0892 10.6621 25.5473 8.92747 26.9382 8.24236C27.933 7.75625 29.2278 8.02082 29.9815 8.8233C30.7171 9.60753 30.8874 10.7553 30.6893 11.7817C30.2727 13.9514 29.0231 15.9113 27.4472 17.4244C26.5217 18.3128 25.4758 18.9703 24.3821 19.6226C22.935 20.4845 21.4834 21.3386 20.0271 22.1848C18.1109 23.3066 16.2152 24.3728 14.4239 25.6868C12.6177 27.0104 10.9623 28.4653 9.41191 30.0753C8.26286 31.2683 7.5417 32.6905 6.78066 34.146C6.50488 34.6743 6.24053 35.4385 5.74236 35.8056C5.39275 36.056 4.81748 36.1261 4.44311 35.901C3.10843 35.0942 3.20317 32.8668 3.56153 31.5985M27.4071 32.5321C26.4983 31.8347 26.8144 30.5693 26.7524 29.5775C26.6783 28.3936 26.4612 27.0898 25.9403 26.0147C25.3744 24.8522 24.0962 24.592 23.0848 23.968C22.1322 23.3798 22.2094 22.2007 23.1816 21.6787C25.195 20.6021 27.5243 21.9002 28.6026 23.6648C29.2778 24.7688 29.6987 26.0453 30.1007 27.2683C30.5128 28.5204 31.0547 30.1348 30.4088 31.3893C29.8992 32.3814 28.4259 33.3121 27.407 32.5321" fill="#141414"/>
<path d="M19.7873 22.0404C15.1773 20.2044 10.3752 16.6774 9.8647 11.318C9.73571 9.95517 9.96374 8.57325 10.3214 7.2569C10.622 6.14994 10.9659 4.96536 11.5164 3.95529C12.4756 2.19275 14.7819 1.80427 16.4106 2.91584C18.3222 4.22417 17.122 6.58575 16.6603 8.33865C16.3513 9.51001 16.0797 10.7148 15.8846 11.9115C15.6915 13.0971 15.6602 14.3183 16.0528 15.4691C16.3784 16.4253 16.958 17.2748 17.7294 17.9264C18.5968 18.652 19.7126 19.0283 20.7241 19.502C21.4261 19.8299 22.8449 20.3117 22.3947 21.3635C21.9683 22.3547 20.6445 22.268 19.7873 22.0407M9.29165 35.0359C9.17719 34.6124 9.31627 34.0498 9.43784 33.6418C9.49315 33.45 9.57039 33.2408 9.6721 33.0111C10.3102 31.5382 11.249 30.4777 12.0523 29.6709C12.8548 28.8637 13.8155 28.0666 14.7875 27.4733C16.5821 26.3735 19.3574 24.8151 20.339 24.4689C21.7797 23.9712 22.6523 24.555 22.6523 24.555C22.6523 24.555 24.8246 26.0381 24.9484 29.2663C25.0678 32.4922 22.8297 33.6701 22.8297 33.6701C22.8297 33.6701 21.3011 34.6598 17.6394 35.4193C15.4421 35.8771 13.2036 36.1795 11.0508 36.0499C9.81577 35.9754 9.40893 35.4786 9.29165 35.0359Z" fill="#141414"/>
</svg>
