<svg width="170" height="46" viewBox="0 0 170 46" fill="none" xmlns="http://www.w3.org/2000/svg">
<g clip-path="url(#clip0_204_195)">
<path fill-rule="evenodd" clip-rule="evenodd" d="M64.9318 9.06197C64.099 8.9286 61.9321 9.11804 61.088 9.61727L60.6992 9.84278L63.0102 7.89711C64.7557 6.69497 67.4183 6.37549 68.2331 6.37549C69.0689 6.37549 70.3301 6.58403 71.5166 6.92836C72.3701 7.17479 72.7684 7.50155 73.4583 7.17479L74.0195 6.90624L67.9636 11.4996C67.4183 12.0361 67.4183 12.2525 67.4183 12.5881V20.4232V20.9579C67.4183 21.2428 67.2376 21.4662 66.973 21.6453L62.1738 24.882C62.1738 24.4649 62.6965 24.0096 62.8543 23.5868C63.0102 23.1694 63.0102 23.113 63.0102 22.5783V14.8778C63.0102 14.8778 63.0102 14.2088 63.0871 14.0375C63.1668 13.8448 63.2818 13.7126 63.4759 13.5774L67.6899 10.7003C67.8894 10.5657 68.2331 10.4178 67.9636 10.1501C67.6899 9.88007 66.584 9.35204 64.9318 9.06197Z" fill="#141414"/>
<path fill-rule="evenodd" clip-rule="evenodd" d="M76.2144 18.458C76.4897 18.6589 76.786 18.8114 77.05 19.0687C77.3213 19.3394 77.5929 19.4961 77.5929 19.8726V27.1746C77.5929 27.3016 77.5544 27.4186 77.4793 27.4755C77.3991 27.534 77.1617 27.4022 77.0295 27.3243L76.2144 26.8493V18.458ZM76.2144 10.8002L78.2142 13.6379C78.2142 13.6379 78.4488 14.3072 78.4092 14.7436C78.3698 15.3323 78.1382 15.7081 77.6499 16.0388L76.2144 17.0243V10.8002ZM68.7786 13.3881V22.5782C68.7786 23.3975 68.7786 23.2838 68.6602 23.5699C68.506 23.9522 67.9629 24.465 67.9629 24.579V24.9021L73.2248 21.3409C73.5638 21.1117 73.7292 20.6916 73.7292 20.4233V19.8726V11.1396C73.7292 10.7004 74.0588 10.166 74.6026 9.74897C74.887 9.52224 75.1665 9.61439 75.4198 9.81444V26.3822L75.4012 26.3728C74.2733 25.712 72.9144 25.2871 71.5366 25.2871C68.506 25.2871 67.1258 25.8196 65.4749 26.6383C64 27.3631 62.7376 28.2579 61.751 29.4591C63.2127 28.6941 64.1605 28.4025 65.8081 28.2227C67.839 27.9975 69.0846 28.1721 71.0117 28.8526C72.2595 29.2882 73.0108 29.6525 74.0197 30.413L82.0006 25.0179C82.1913 24.8924 82.3113 24.7109 82.4095 24.5999C82.5475 24.4247 82.5475 23.1098 82.5475 22.0808C82.5475 21.2251 82.2716 19.0687 80.6603 18.4219C79.787 18.0776 78.9731 17.9842 78.1556 17.8718C77.9624 17.8521 77.7592 17.9296 77.5742 17.7905C77.4622 17.7793 77.3734 17.729 77.5166 17.3346L81.3012 14.7809C81.6729 14.5312 82.2716 13.9434 82.2716 12.8556C82.2716 12.5876 82.2951 11.885 81.4367 10.7004L79.2059 7.61324C78.8278 7.09098 78.5059 6.63965 77.8663 6.63965C77.3213 6.63965 76.9474 6.82727 76.4674 7.15282L69.0694 12.3242C68.7786 12.5876 68.7786 13.119 68.7786 13.3881Z" fill="#141414"/>
<path fill-rule="evenodd" clip-rule="evenodd" d="M87.0377 22.3883L90.8387 24.1312C91.0145 24.2124 91.1195 24.2843 91.2287 24.4449C91.3258 24.5907 91.3703 24.692 91.3703 24.8626V28.6273L87.5338 26.8874C87.5338 26.8874 87.182 26.6431 87.182 26.6067C87.1103 26.4667 87.0377 26.2933 87.0377 26.1551V22.3883ZM84.5857 28.3172L88.4228 30.0631C88.5998 30.1422 88.7246 30.144 88.9184 30.1337C89.0484 30.1207 89.1244 30.1143 89.2421 30.0631L92.3643 28.6273L94.144 30.4093L96.0964 28.4906L94.144 26.574V18.2712C94.144 18.1632 94.1491 18.0926 93.8949 17.7468L89.9144 15.9375C89.7957 15.8799 89.7261 15.8357 89.5943 15.8299C89.4509 15.8253 89.3709 15.8723 89.2421 15.9375L85.084 17.9559C85.192 18.2366 85.6171 17.9926 85.7935 17.8889C86.1835 17.8207 86.4426 17.6043 86.7169 17.5764C86.8378 17.5364 86.9116 17.5364 87.0377 17.5385C87.1918 17.5422 87.2867 17.5473 87.4283 17.6086L90.981 19.1811C91.1155 19.2369 91.1866 19.302 91.3703 19.7006V21.6557L89.2049 20.643C89.2049 20.643 88.9553 20.5369 88.8149 20.5369C88.6709 20.5369 88.3849 20.643 88.3849 20.643L84.4441 22.425C84.3422 22.468 84.344 22.5659 84.2305 22.9467L84.2677 27.7573C84.2677 27.9019 84.2964 27.9871 84.5857 28.3172Z" fill="#141414"/>
<path fill-rule="evenodd" clip-rule="evenodd" d="M143.67 27.9012L142.53 26.6439C142.491 26.5278 142.53 26.4539 142.53 26.3281V9.90186L139.225 13.1442V27.9673L141.432 30.1343L143.67 27.9012Z" fill="#141414"/>
<path fill-rule="evenodd" clip-rule="evenodd" d="M97.6948 28.4558L99.7216 30.3748L101.958 28.1799L100.821 27.0966V20.4354L102.386 18.8329L103.909 20.3645V28.2442L106.151 30.4809L108.354 28.2442L107.108 27.0305V18.5183L104.374 15.8306L101.78 18.3446L99.2215 15.8306L96.3447 18.6225L97.6948 19.912V28.4558Z" fill="#141414"/>
<path fill-rule="evenodd" clip-rule="evenodd" d="M148.273 18.1348L148.448 17.9812L151.477 21.4151C151.545 21.4906 151.599 21.5436 151.518 21.8134L148.273 23.6242V18.1348ZM149.458 30.0305C149.588 30.0929 149.983 30.1447 150.119 30.1447C150.238 30.1447 150.53 30.0899 150.642 30.0126L154.333 27.5525C154.519 27.4286 154.585 27.1718 154.585 27.1718C154.41 26.9245 154.007 27.2406 153.964 27.2664L152.488 28.1454C152.401 28.1948 152.353 28.2339 151.963 28.1454L148.429 26.545C148.37 26.518 148.37 26.4859 148.253 26.1606L148.273 25.0003C148.276 24.8927 148.281 24.8251 148.486 24.5587L154.546 20.554L150.292 15.8103C150.162 15.7745 150.067 15.7897 149.943 15.8464L145.692 17.7905C145.617 17.8266 145.61 17.8924 145.518 18.1348V27.9523C145.518 28.0493 145.572 28.1454 145.806 28.3764L149.458 30.0305Z" fill="#141414"/>
<path fill-rule="evenodd" clip-rule="evenodd" d="M114.782 29.9911C115.003 30.0884 115.145 30.1433 115.387 30.1342C115.607 30.1175 115.92 29.956 115.92 29.956L119.578 27.2683C119.365 27.1319 119.06 27.2131 118.795 27.3744L117.661 28.0721C117.661 28.0721 117.471 28.1746 117.054 28.1085L113.61 26.5742C113.61 26.5742 113.504 26.455 113.433 26.0846V18.2365C113.433 18.1304 113.433 17.9558 113.752 17.9558L117.307 19.5641C117.307 19.5641 117.479 19.6086 117.874 19.4932L120.04 18.0291L115.387 15.9371C115.216 15.8604 115.11 15.8355 114.924 15.8297C114.726 15.8279 114.61 15.8549 114.426 15.9371L110.305 17.7472C110.305 17.7472 110.2 17.8667 110.131 18.2365V27.5853C110.131 27.6784 110.124 27.7396 110.448 28.0721L114.782 29.9911Z" fill="#141414"/>
<path fill-rule="evenodd" clip-rule="evenodd" d="M126.057 28.1841L124.967 27.1171C124.92 27.0698 124.915 27.0247 124.834 26.6749V20.462C124.834 20.348 124.834 20.2801 125.008 19.9479L126.172 18.8055L127.221 19.8912C127.26 19.987 127.299 20.0731 127.299 20.1956V33.3842L130.618 30.1443V18.6509C130.618 18.5087 130.654 18.4221 130.487 18.098L128.134 15.8301L124.834 18.8055V9.88037L121.532 13.1191V28.2977L123.725 30.4516L126.057 28.1841Z" fill="#141414"/>
<path fill-rule="evenodd" clip-rule="evenodd" d="M133.117 19.5973V28.2442L135.356 30.4099L137.698 28.1793L136.597 27.0305C136.547 26.9751 136.549 26.922 136.456 26.5741V17.7471L134.467 15.8306L132.12 18.1306L133.117 19.2121C133.141 19.3597 133.117 19.4491 133.117 19.5973Z" fill="#141414"/>
<path fill-rule="evenodd" clip-rule="evenodd" d="M136.776 12.1006L134.467 9.90186L132.12 12.1722L134.43 14.4367L136.776 12.1006Z" fill="#141414"/>
<path fill-rule="evenodd" clip-rule="evenodd" d="M50.9951 44.3517H51.8621V36.6938H50.9951V44.3517Z" fill="#141414"/>
<path fill-rule="evenodd" clip-rule="evenodd" d="M59.0361 36.3726L65.035 42.6306V36.6945H65.902V44.6972L59.9025 38.4513V44.3523H59.0361V36.3726Z" fill="#141414"/>
<path fill-rule="evenodd" clip-rule="evenodd" d="M75.2799 42.5266L77.4646 36.6938H78.4011L75.2687 44.8L72.1475 36.6938H73.0953L75.2799 42.5266Z" fill="#141414"/>
<path fill-rule="evenodd" clip-rule="evenodd" d="M85.5144 37.4867V39.7712H88.5541V40.5636H85.5144V43.5604H88.6356V44.3518H84.6475V36.6943H88.6356V37.4867H85.5144Z" fill="#141414"/>
<path fill-rule="evenodd" clip-rule="evenodd" d="M96.8018 40.2415C97.8881 40.2415 98.5003 39.7362 98.5003 38.8405C98.5003 38.3701 98.2925 37.9569 97.9339 37.7384C97.6568 37.5662 97.3102 37.4865 96.7673 37.4865H96.258V40.2415H96.8018ZM99.8528 44.3517H98.8012L96.4777 40.9992H96.258V44.3517H95.3916V36.6938H96.6397C97.5183 36.6938 98.0499 36.8084 98.489 37.107C99.0209 37.4631 99.3441 38.1179 99.3441 38.8405C99.3441 40.0005 98.5818 40.8274 97.402 40.9304L99.8528 44.3517Z" fill="#141414"/>
<path fill-rule="evenodd" clip-rule="evenodd" d="M109.8 38.1978C109.407 37.5773 109.072 37.3709 108.471 37.3709C107.754 37.3709 107.199 37.8759 107.199 38.554C107.199 38.8868 107.361 39.1623 107.685 39.38C107.962 39.5639 107.962 39.5639 109.014 40.0235C110.251 40.563 110.759 41.1713 110.759 42.1358C110.759 43.4559 109.684 44.4892 108.308 44.4892C107.095 44.4892 106.229 43.7666 105.939 42.5144L106.772 42.2847C106.864 42.6754 106.934 42.8594 107.084 43.0661C107.361 43.4559 107.835 43.6854 108.343 43.6854C109.199 43.6854 109.893 43.0197 109.893 42.1816C109.893 41.7109 109.684 41.3553 109.257 41.0913C108.968 40.907 108.968 40.907 107.893 40.4254C106.783 39.9316 106.333 39.38 106.333 38.5419C106.333 37.4173 107.257 36.5674 108.494 36.5674C109.361 36.5674 110.019 36.969 110.482 37.7616L109.8 38.1978Z" fill="#141414"/>
<path fill-rule="evenodd" clip-rule="evenodd" d="M117.515 44.3517H118.381V36.6938H117.515V44.3517Z" fill="#141414"/>
<path fill-rule="evenodd" clip-rule="evenodd" d="M125.994 40.4824C125.994 41.4244 126.329 42.205 126.977 42.813C127.566 43.3647 128.352 43.6857 129.115 43.6857C130.872 43.6857 132.282 42.285 132.282 40.5288C132.282 38.7837 130.884 37.3709 129.139 37.3709C127.416 37.3709 125.994 38.7837 125.994 40.4824ZM133.149 40.5288C133.149 42.7212 131.334 44.4892 129.104 44.4892C128.006 44.4892 126.884 43.9842 126.121 43.1461C125.474 42.4235 125.127 41.5157 125.127 40.4824C125.127 38.37 126.977 36.5674 129.15 36.5674C131.334 36.5674 133.149 38.3588 133.149 40.5288Z" fill="#141414"/>
<path fill-rule="evenodd" clip-rule="evenodd" d="M139.904 36.3726L145.903 42.6306V36.6945H146.77V44.6972L140.771 38.4513V44.3523H139.904V36.3726Z" fill="#141414"/>
<path fill-rule="evenodd" clip-rule="evenodd" d="M154.808 37.4867V39.7712H157.847V40.5636H154.808V43.5604H157.928V44.3518H153.94V36.6943H157.928V37.4867H154.808Z" fill="#141414"/>
<path fill-rule="evenodd" clip-rule="evenodd" d="M168.117 38.1978C167.723 37.5773 167.388 37.3709 166.787 37.3709C166.071 37.3709 165.516 37.8759 165.516 38.554C165.516 38.8868 165.677 39.1623 166.001 39.38C166.279 39.5639 166.279 39.5639 167.331 40.0235C168.567 40.563 169.077 41.1713 169.077 42.1358C169.077 43.4559 168.001 44.4892 166.626 44.4892C165.412 44.4892 164.545 43.7666 164.256 42.5144L165.088 42.2847C165.181 42.6754 165.25 42.8594 165.4 43.0661C165.677 43.4559 166.152 43.6854 166.661 43.6854C167.515 43.6854 168.21 43.0197 168.21 42.1816C168.21 41.7109 168.001 41.3553 167.574 41.0913C167.284 40.907 167.284 40.907 166.209 40.4254C165.1 39.9316 164.649 39.38 164.649 38.5419C164.649 37.4173 165.574 36.5674 166.81 36.5674C167.678 36.5674 168.337 36.969 168.798 37.7616L168.117 38.1978Z" fill="#141414"/>
<path fill-rule="evenodd" clip-rule="evenodd" d="M15.3565 13.1799C17.1475 13.4876 18.3468 14.0672 18.6422 14.3569C18.9373 14.6455 18.5653 14.8095 18.3468 14.955L13.7745 18.0825C13.5661 18.2231 13.4364 18.3704 13.3516 18.5741C13.2701 18.7648 13.2701 19.4898 13.2701 19.4898V27.8454C13.2701 28.4222 13.2701 28.4834 13.0998 28.9399C12.9314 29.3931 12.3613 29.8902 12.3613 30.3455L17.5692 26.8303C17.857 26.6348 18.0535 26.3965 18.0535 26.0849V25.5063V17.0058C18.0535 16.6387 18.0535 16.4044 18.6422 15.8258L25.2187 10.8414L24.6084 11.1306C23.8607 11.4852 23.4286 11.1306 22.5003 10.8605C21.215 10.4898 19.8439 10.2598 18.9373 10.2598C18.0535 10.2598 15.1627 10.6099 13.2701 11.9172L10.7607 14.0259L11.1828 13.7786C12.0977 13.239 14.4486 13.0351 15.3565 13.1799Z" fill="#141414"/>
<path fill-rule="evenodd" clip-rule="evenodd" d="M29.0965 32.8275C29.0965 32.9663 29.055 33.0958 28.9714 33.1609C28.8853 33.2179 28.6266 33.0773 28.485 32.9954L27.5997 32.4744V23.3707C27.9018 23.5862 28.2186 23.7578 28.5057 24.0364C28.8011 24.3261 29.0965 24.4959 29.0965 24.9048V32.8275ZM27.5997 15.0658L29.7694 18.1423C29.7694 18.1423 30.0224 18.8677 29.9812 19.3409C29.9397 19.9834 29.6855 20.3866 29.1594 20.7485L27.5997 21.8179V15.0658ZM32.4283 23.3347C31.4777 22.9639 30.593 22.8582 29.7084 22.7342C29.4969 22.7124 29.2759 22.7981 29.0123 22.1543L33.1213 19.3815C33.5235 19.1123 34.1738 18.4736 34.1738 17.2955C34.1738 17.0057 34.1991 16.2397 33.269 14.9548L30.8436 11.6054C30.4359 11.0392 30.0862 10.5527 29.3904 10.5527C28.8011 10.5527 28.3931 10.7543 27.8743 11.1096L19.8434 16.7171C19.5275 17.0057 19.5275 17.5834 19.5275 17.872V27.8453C19.5275 28.7316 19.5275 28.6094 19.4015 28.921C19.234 29.3341 18.6414 29.89 18.6414 30.0149V30.365L24.3543 26.5C24.7229 26.2482 24.9021 25.795 24.9021 25.5061V24.9048V15.4322C24.9021 14.9548 25.2615 14.3762 25.8526 13.9221C26.1569 13.6796 26.4627 13.7742 26.7352 13.9967L26.7132 31.9594C25.4929 31.2437 24.0168 30.7791 22.5197 30.7791C19.234 30.7791 17.7375 31.3598 15.9459 32.247C14.3453 33.0336 12.9724 34.0045 11.8994 35.3088C13.4887 34.4755 14.5192 34.1642 16.3041 33.9669C18.5107 33.7211 19.8599 33.9114 21.9524 34.6492C23.307 35.1257 24.1245 35.517 25.2185 36.3421L33.8808 30.4905C34.0865 30.3526 34.219 30.1601 34.3239 30.0358C34.4719 29.8506 34.4719 28.4221 34.4719 27.3051C34.4719 26.3746 34.1738 24.0364 32.4283 23.3347Z" fill="#141414"/>
<path fill-rule="evenodd" clip-rule="evenodd" d="M22.6165 3.66688C11.717 3.66688 2.8496 12.475 2.8496 23.3012C2.8496 34.1278 11.717 42.9353 22.6165 42.9353C33.5159 42.9353 42.3836 34.1278 42.3836 23.3012C42.3836 12.475 33.5159 3.66688 22.6165 3.66688ZM22.6165 45.7658C10.1457 45.7658 0 35.6882 0 23.3012C0 10.914 10.1457 0.836426 22.6165 0.836426C35.0875 0.836426 45.2332 10.914 45.2332 23.3012C45.2332 35.6882 35.0875 45.7658 22.6165 45.7658Z" fill="#141414"/>
</g>
<defs>
<clipPath id="clip0_204_195">
<rect width="170" height="46" fill="white"/>
</clipPath>
</defs>
</svg>
