<svg width="1024" height="1024" viewBox="0 0 1024 1024" fill="none" xmlns="http://www.w3.org/2000/svg">
<g clip-path="url(#clip0_357_3052)">
<path d="M532.09 303.213C530.086 278.84 526.871 277.157 515.54 258.601C504.673 240.803 506.399 208.606 521.102 193.364C524.327 189.574 527.826 186.43 531.144 182.999C540.938 172.875 548.647 167.044 562.643 163.789C568.373 162.456 577.727 161.002 582.808 158.457C589.902 154.904 597.452 149.695 604.361 145.578C622.017 134.863 641.922 128.398 662.505 126.695C696.141 123.83 729.511 134.646 755.071 156.698C784.072 181.843 799.289 220.651 802.827 258.164C805.313 284.518 803.605 294.425 813.042 320.496C818.903 333.831 821.36 337.208 827.957 349.152C830.845 352.46 833.358 356.116 836.187 359.519C840.36 364.465 844.79 369.188 849.459 373.669C853.493 377.274 869.389 391.702 872.921 393.106C904.51 415.7 933.299 441.16 940.109 481.406C943.502 501.461 941.04 521.638 934.124 540.701C927.824 558.064 918.609 574.544 920.181 593.665C923.853 638.326 982.427 642.762 979.068 709.503C978.208 727.01 972.293 743.893 962.038 758.11C945.657 780.88 921.055 793.671 893.779 798.163C899.713 825.135 908.045 851.882 894.922 877.685C899.335 889.216 903.068 903.554 891.846 912.472C892.604 920.976 893.451 929.297 893.778 937.834C893.468 939.422 893.237 940.767 893.016 942.371C893.22 938.896 893.396 937.418 892.853 933.973C891.597 937.16 893.088 956.524 892.2 959.719C892.012 958.095 891.917 956.925 891.855 955.291C890.731 981.101 886.418 1000.79 874.803 1024H599.725H578.869H490.32H487.951H448.492H446.109H346.641H344.125C345.484 1019.95 346.931 1015.93 348.466 1011.94C365.153 969.537 390.305 956.869 429.302 939.87C424.03 916.363 419.418 890.742 414.775 866.985C403.44 866.413 391.112 866.613 379.672 866.601L313.33 866.879H201.614C171.442 866.902 140.919 867.17 110.774 866.82C99.4787 918.79 90.3403 972.175 79.0374 1024H77.1481H37.0934H34.7626L56.8882 912.397L63.3524 880.276C63.7944 878.038 65.7055 869.037 65.6875 867.246C60.8747 866.352 47.8756 866.646 42.1729 866.647C28.1146 866.577 14.0561 866.671 0 866.928L0 864.587V817.54V815.23L114.526 815.223C141.063 815.139 171.916 814.65 198.281 815.841C196.85 814.799 192.82 811.956 192.113 810.592C189.838 806.203 187.756 800.972 185.932 796.401L175.096 768.833C164.206 741.271 152.563 713.357 142.059 685.751C138.358 676.591 134.747 667.395 131.229 658.164C126.598 646.981 122.167 635.717 117.937 624.376C114.409 617.722 109.601 603.516 106.44 595.702C104.144 588.567 93.7861 569.617 97.1695 564.643C110.004 545.775 120.681 583.276 122.049 587.645C125.408 596.024 130.798 608.447 133.585 616.681C137.467 627.345 141.942 638.027 146 648.667C149.858 656.151 153.901 669.213 157.901 677.981C163.376 693.927 171.572 713.254 177.887 729.177C187.066 752.321 196.427 776.841 206.652 799.393C208.383 798.055 210.717 796.126 212.558 795.086C229.244 794.26 246.364 795.409 263.112 795.024C265.997 794.958 269.279 794.935 272.163 795.058C279.954 794.373 288.713 794.734 296.627 794.669C312.773 794.501 328.92 794.443 345.067 794.496L473.731 794.536L471.713 789.965C452.238 790.163 444.297 787.404 426.604 780.096C412.472 783.581 396.052 787.178 381.731 784.287C374.984 788.291 371.056 789.974 363.447 791.631C363.314 791.695 363.181 791.76 363.049 791.824C355.225 794.103 354.406 791.829 352.401 785.868C350.353 785.452 348.1 787.463 345.77 788.376C337.606 791.575 332.396 789.128 324.984 786.089C321.777 787.613 313.982 791.235 311.801 785.853C310.904 783.639 311.265 780.877 312.189 778.683C309.982 777.425 307.517 778.321 305.575 777.587C296.563 774.178 309.206 763.129 311.79 760.096C327.015 742.225 347.303 729.258 369.244 721.296C387.721 718.25 409.352 721.528 427.872 724.402C433.818 714.424 442.418 716.314 452.644 715.684C465.838 705.774 471.838 705.687 487.65 703.779C512.313 700.804 536.595 702.701 561.255 701.894C569.465 701.651 577.669 701.249 585.863 700.689C590.812 700.331 600.814 699.313 605.337 699.63C606.358 694.829 602.068 687.996 600.392 683.39C598.433 678.005 596.478 672.723 594.844 667.213C592.815 660.483 591.419 653.578 590.673 646.588C588.7 626.212 595.382 600.17 602.76 580.946C604.58 577.405 605.685 573.442 606.749 569.629L607.299 566.466L608.71 564.103C606.992 561.339 605.725 553.611 605.038 550.096C608.374 549.697 611.701 549.231 615.019 548.699C616.206 545.96 612.861 533.017 612.247 528.969C611.639 524.962 611.25 513.67 610.099 510.835L610.471 510.024C609.275 497.722 605.675 490.469 598.355 480.715C593.131 474.55 586.467 469.314 580.155 464.329C577.892 462.541 574.241 459.883 572.411 457.958C552.756 444.544 538.74 422.698 534.335 399.309C533.589 395.348 532.009 382.552 530.804 379.684L529.597 378.274C529.436 375.776 529.601 374.787 529.942 372.283C532.705 350.979 532.301 324.761 532.09 303.213ZM478.03 815.375C482.164 814.927 508.776 815.118 513.941 815.607C509.097 811.896 507.415 810.394 503.59 805.656C496.773 805.451 490.791 804.605 484.044 803.724C484.035 807.062 484.373 808.891 482.318 811.588C480.954 813.313 479.782 814.052 478.03 815.375ZM470.9 925.745C483.684 920.728 504.898 914.803 518.459 910.768C549.887 902.373 577.783 894.594 609.987 888.649C609.812 880.702 610.029 877.624 614.989 870.995C609.598 865.379 607.279 859.585 605.226 852.11C592.437 847.801 579.587 844.301 566.772 839.764C558.081 836.687 547.843 831.985 539.292 829.412C539.644 840.4 539.899 856.1 539.378 866.976C512.649 866.282 485.701 867.231 459.194 866.728C462.911 885.444 466.678 907.306 470.9 925.745ZM524.28 193.407C514.284 205.111 509.427 216.327 510.735 232.056C511.788 243.409 515.501 254.354 521.574 264.003L524.548 268.36C519.288 248.097 513.986 226.196 520.48 205.678C521.127 203.635 524.471 194.816 524.28 193.407ZM847.855 374.871C837.486 364.923 835.206 362.32 827.013 350.742C823.988 353.514 820.816 356.324 817.994 359.287C821.235 366.904 827.722 379.555 832.79 386.239C837.472 383.032 843.084 378.38 847.855 374.871ZM854.816 410.631C874.672 429.372 898.323 440.046 914.787 464.914C932.076 491.031 935.888 512.904 930.422 543.324C942.531 514.291 943.304 485.29 929.909 456.416C917.45 429.56 894.579 411.779 871.432 394.668C864.831 400.195 859.896 403.687 854.816 410.631Z" fill="black"/>
<path d="M106.44 595.702C104.144 588.567 93.7861 569.617 97.1695 564.643C110.004 545.775 120.681 583.276 122.049 587.645C125.408 596.024 130.798 608.447 133.585 616.681C137.467 627.345 141.942 638.027 146 648.667C149.858 656.151 153.901 669.213 157.901 677.981C163.376 693.927 171.572 713.254 177.887 729.177C187.066 752.321 196.427 776.841 206.652 799.393C208.383 798.055 210.717 796.126 212.558 795.086C229.244 794.26 246.364 795.409 263.112 795.024C265.997 794.958 269.279 794.935 272.163 795.058C279.954 794.373 288.713 794.734 296.627 794.669C312.773 794.501 328.92 794.443 345.067 794.496L473.731 794.536L471.713 789.965C452.238 790.163 444.297 787.404 426.604 780.096C412.472 783.581 396.052 787.178 381.731 784.287C374.984 788.291 371.056 789.974 363.447 791.631C363.314 791.695 363.181 791.76 363.049 791.824C355.225 794.103 354.406 791.829 352.401 785.868C350.353 785.452 348.1 787.463 345.77 788.376C337.606 791.575 332.396 789.128 324.984 786.089C321.777 787.613 313.982 791.235 311.801 785.853C310.904 783.639 311.265 780.877 312.189 778.683C309.982 777.425 307.517 778.321 305.575 777.587C296.563 774.178 309.206 763.129 311.79 760.096C327.015 742.225 347.303 729.258 369.244 721.296C387.721 718.25 409.352 721.528 427.872 724.402C433.818 714.424 442.418 716.314 452.644 715.684C465.838 705.774 471.838 705.687 487.65 703.779C512.313 700.804 536.595 702.701 561.255 701.894C569.465 701.651 577.669 701.249 585.863 700.689C590.812 700.331 600.814 699.313 605.337 699.63L607.252 701.49C608.041 704.779 610.955 715.096 609.427 717.606L609.184 719.226C580.151 717.129 525.99 708.763 503.784 729.809C502.961 745.136 503.432 759.463 504.004 774.756C504.34 783.715 503.777 795.51 505.189 804.276C509.574 809.513 511.451 811.247 516.972 815.277L539.502 815.419C539.486 818.727 539.563 822.61 539.403 825.866C539.065 823.836 538.234 822.609 537.511 820.713L537.503 864.639C471.624 865.043 405.744 865.073 339.865 864.728L0 864.587V817.54V815.23L114.526 815.223C141.063 815.139 171.916 814.65 198.281 815.841C196.85 814.799 192.82 811.956 192.113 810.592C189.838 806.203 187.756 800.972 185.932 796.401L175.096 768.833C164.206 741.271 152.563 713.357 142.059 685.751C138.358 676.591 134.747 667.395 131.229 658.164C126.598 646.981 122.167 635.717 117.937 624.376C114.409 617.722 109.601 603.516 106.44 595.702ZM478.03 815.375C482.164 814.927 508.776 815.118 513.941 815.607C509.097 811.896 507.415 810.394 503.59 805.656C496.773 805.451 490.791 804.605 484.044 803.724C484.035 807.062 484.373 808.891 482.318 811.588C480.954 813.313 479.782 814.052 478.03 815.375Z" fill="#FDD87F"/>
<path d="M605.337 699.63L607.252 701.49C608.041 704.779 610.955 715.096 609.427 717.606L609.184 719.226C580.151 717.129 525.99 708.763 503.784 729.809C502.961 745.136 503.432 759.463 504.004 774.756C504.34 783.715 503.777 795.51 505.189 804.276C509.574 809.513 511.451 811.247 516.972 815.277L514.653 816.088L513.941 815.607C509.097 811.896 507.415 810.394 503.59 805.656C496.773 805.451 490.791 804.605 484.044 803.724C484.035 807.062 484.373 808.891 482.318 811.588C482.258 809.621 483.011 808.28 482.708 806.43L482.058 807.475C480.832 801.6 478.439 800.275 473.731 796.833C459.628 795.737 440.32 796.788 425.642 796.56C388.842 795.988 351.105 797.218 314.346 796.383C312.832 795.393 246.736 796.491 238.384 795.806C239.333 794.989 266.945 796.128 272.163 795.058C279.954 794.373 288.713 794.734 296.627 794.669C312.773 794.501 328.92 794.443 345.067 794.496L473.731 794.536L471.713 789.965C452.238 790.163 444.297 787.404 426.604 780.096C412.472 783.581 396.052 787.178 381.731 784.287C374.984 788.291 371.056 789.974 363.447 791.631C363.314 791.695 363.181 791.76 363.049 791.824C355.225 794.103 354.406 791.829 352.401 785.868C350.353 785.452 348.1 787.463 345.77 788.376C337.606 791.575 332.396 789.128 324.984 786.089C321.777 787.613 313.982 791.235 311.801 785.853C310.904 783.639 311.265 780.877 312.189 778.683C309.982 777.425 307.517 778.321 305.575 777.587C296.563 774.178 309.206 763.129 311.79 760.096C327.015 742.225 347.303 729.258 369.244 721.296C387.721 718.25 409.352 721.528 427.872 724.402C433.818 714.424 442.418 716.314 452.644 715.684C465.838 705.774 471.838 705.687 487.65 703.779C512.313 700.804 536.595 702.701 561.255 701.894C569.465 701.651 577.669 701.249 585.863 700.689C590.812 700.331 600.814 699.313 605.337 699.63Z" fill="#423532"/>
<path d="M369.244 721.296C371.483 721.383 373.375 721.804 375.58 721.99C356.685 725.958 338.656 737.417 328.539 754.176C323.349 762.774 314.666 774.992 314.042 785.22C313.852 788.346 322.629 785.367 323.96 784.809C326.345 778.113 340.875 759.689 346.297 755.509L347.099 755.693C361.076 742.32 383.558 727.431 403.332 728.581C423.967 729.781 449.851 733.588 469.61 739.203C469.477 754.491 468.943 772.063 471.869 787.108C444.098 793.571 428.261 772.836 405.906 772.153C396.399 771.863 376.828 787.272 363.416 790.476L363.447 791.631C363.314 791.695 363.181 791.76 363.049 791.824C355.225 794.103 354.406 791.829 352.401 785.868C350.353 785.452 348.1 787.463 345.77 788.376C337.606 791.575 332.396 789.128 324.984 786.089C321.777 787.613 313.982 791.235 311.801 785.853C310.904 783.639 311.265 780.877 312.189 778.683C309.982 777.425 307.517 778.321 305.575 777.587C296.563 774.178 309.206 763.129 311.79 760.096C327.015 742.225 347.303 729.258 369.244 721.296Z" fill="#F5D1BB"/>
<path d="M369.244 721.296C371.483 721.383 373.375 721.804 375.58 721.99C356.685 725.958 338.656 737.417 328.539 754.176C323.349 762.774 314.666 774.992 314.042 785.22C313.852 788.346 322.629 785.367 323.96 784.809C326.345 778.113 340.875 759.689 346.297 755.509L347.099 755.693C344.367 758.67 343.494 759.692 341.367 763.272L341.919 762.882C346.103 759.876 383.399 730.129 387.733 735.895C386.21 737.48 372.285 743.453 369.216 745.193C360.851 749.936 327.426 773.899 327.092 783.275C327.072 783.85 327.127 783.9 327.285 784.369L328.269 785.14C331.104 784.179 332.598 780.541 334.797 778.388C347.809 765.651 362.213 753.874 379.384 747.253C383.118 745.813 388.028 743.208 391.989 743.335L392.167 743.795C386.34 748.302 376.951 749.589 370.497 752.986C366.634 755.02 317.5 787.487 338.521 788.269C350.216 788.704 389.544 752.909 399.047 754.419L399.657 755.034C397.137 759.28 352.982 776.987 355.458 788.631C357.488 790.975 360.531 790.624 363.416 790.476L363.447 791.631C363.314 791.695 363.181 791.76 363.049 791.824C355.225 794.103 354.406 791.829 352.401 785.868C350.353 785.452 348.1 787.463 345.77 788.376C337.606 791.575 332.396 789.128 324.984 786.089C321.777 787.613 313.982 791.235 311.801 785.853C310.904 783.639 311.265 780.877 312.189 778.683C309.982 777.425 307.517 778.321 305.575 777.587C296.563 774.178 309.206 763.129 311.79 760.096C327.015 742.225 347.303 729.258 369.244 721.296Z" fill="#60534A"/>
<path d="M333.334 742.516L333.525 742.642C333.527 744.234 327.74 751.565 326.411 753.817C322.179 760.993 318.585 768.245 314.401 775.456C311.298 775.957 308.765 775.996 305.632 776.106C301.349 769.036 327.708 747.139 333.334 742.516Z" fill="#F5D1BB"/>
<path d="M454.546 716.589C469.763 704.099 497.807 704.661 516.75 704.435L550.746 703.99C570.243 703.65 588.079 702.238 607.252 701.49C608.041 704.779 610.955 715.096 609.427 717.606C578.146 715.291 543.861 709.133 513.607 720.707C509.606 722.237 505.688 725.475 502.447 728.168C488.473 729.365 481.205 724.289 469.877 736.909C466.527 736.61 464.444 736.051 461.181 735.253C459.419 728.881 457.202 722.644 454.546 716.589Z" fill="#8C80B9"/>
<path d="M375.58 721.99C385.519 721.598 419.155 722.969 427.499 727.266L428.059 728.069C425.528 729.793 404.857 725.968 399.089 726.514C380.408 728.281 358.058 741.747 346.297 755.509C340.875 759.689 326.345 778.113 323.96 784.809C322.629 785.367 313.852 788.346 314.042 785.22C314.666 774.992 323.349 762.774 328.539 754.176C338.656 737.417 356.685 725.958 375.58 721.99Z" fill="#F5D1BB"/>
<path d="M498.355 742.737C500.422 742.798 499.584 742.427 501.016 743.738C502.422 747.522 501.787 752.882 501.561 757.013C492.942 757.31 483.653 757.472 475.121 758.448C473.708 758.53 473.795 758.556 472.459 758.105C470.155 755.141 470.975 750.338 471.127 746.366C480.017 744.342 489.287 743.536 498.355 742.737Z" fill="#A0BEDA"/>
<path d="M472.419 773.808C482.197 773.935 492.243 774.864 501.972 775.759C502.239 780.669 502.396 785.584 502.442 790.501C493.837 790.644 481.798 787.877 473.413 785.73C472.597 781.012 472.514 778.642 472.419 773.808Z" fill="#A0BEDA"/>
<path d="M493.62 759.306C496.212 759.17 498.877 759.097 501.477 758.999C501.711 763.837 501.888 768.678 502.009 773.52C495.707 773.555 486.942 772.685 480.467 772.209C477.585 771.904 474.7 771.625 471.812 771.373C471.525 768.105 471.486 763.957 471.367 760.613C478.386 759.774 486.496 759.546 493.62 759.306Z" fill="#A0BEDA"/>
<path d="M489.386 729.673C492.641 729.127 498.341 729.851 501.62 730.227L501.379 740.343C494.718 741.049 488.064 741.815 481.417 742.64C479.517 742.918 472.976 744.372 471.909 743.964C468.333 733.281 482.342 730.773 489.386 729.673Z" fill="#A0BEDA"/>
<path d="M473.674 788.208C484.26 790.182 491.616 791.73 502.477 793.215L502.677 803.374C493.735 803.814 481.587 802.875 476.199 794.657C475.001 792.83 474.319 790.308 473.674 788.208Z" fill="#A0BEDA"/>
<path d="M405.371 774.097C412.036 773.457 417.251 776.252 423.335 778.75C415.718 780.801 408.337 782.118 400.563 783.339C392.989 784.247 390.911 784.227 383.343 783.272C391.259 779.836 396.382 775.771 405.371 774.097Z" fill="#F5D1BB"/>
<path d="M447.38 717.669C450.672 717.517 455.031 719.004 454.184 723.001C451.689 725.226 441.787 725.945 437.114 727.159C434.64 727.721 430.93 728.281 429.748 725.634C431.252 719.448 442.12 718.196 447.38 717.669Z" fill="#A0BEDA"/>
<path d="M448.641 726.667C456.876 725.16 457.581 727.141 458.976 734.426C454.642 733.824 449.972 732.964 445.624 732.252C440.709 731.477 436.212 730.875 431.417 729.463C436.285 728.327 443.519 727.44 448.641 726.667Z" fill="#A0BEDA"/>
<path d="M106.44 595.702C104.144 588.567 93.7861 569.617 97.1695 564.643C110.004 545.775 120.681 583.276 122.049 587.645C125.408 596.024 130.798 608.447 133.585 616.681C137.467 627.345 141.942 638.027 146 648.667C149.858 656.151 153.901 669.213 157.901 677.981C163.376 693.927 171.572 713.254 177.887 729.177C187.066 752.321 196.427 776.841 206.652 799.393C208.383 798.055 210.717 796.126 212.558 795.086C229.244 794.26 246.364 795.409 263.112 795.024C265.997 794.958 269.279 794.935 272.163 795.058C266.945 796.128 239.333 794.989 238.384 795.806C246.736 796.491 312.832 795.393 314.346 796.383C351.105 797.218 388.842 795.988 425.642 796.56C440.32 796.788 459.628 795.737 473.731 796.833C478.439 800.275 480.832 801.6 482.058 807.475L482.708 806.43C483.011 808.28 482.258 809.621 482.318 811.588C480.954 813.313 479.782 814.052 478.03 815.375C482.164 814.927 508.776 815.118 513.941 815.607L514.653 816.088L516.972 815.277L539.502 815.419C539.486 818.727 539.563 822.61 539.403 825.866C539.065 823.836 538.234 822.609 537.511 820.713C537.463 819.525 537.392 819.129 537.168 817.954C535.044 817.037 424.648 817.485 412.683 817.486L0 817.54V815.23L114.526 815.223C141.063 815.139 171.916 814.65 198.281 815.841C196.85 814.799 192.82 811.956 192.113 810.592C189.838 806.203 187.756 800.972 185.932 796.401L175.096 768.833C164.206 741.271 152.563 713.357 142.059 685.751C138.358 676.591 134.747 667.395 131.229 658.164C126.598 646.981 122.167 635.717 117.937 624.376C114.409 617.722 109.601 603.516 106.44 595.702Z" fill="#3A3231"/>
<path d="M214.968 796.537L314.346 796.383C351.105 797.218 388.842 795.988 425.642 796.56C440.32 796.788 459.628 795.737 473.731 796.833C478.439 800.275 480.832 801.6 482.058 807.475C479.658 813.033 475.82 814.034 470.229 814.211C447.676 814.924 425.101 814.613 402.54 814.502L300.863 814.251C285.726 814.197 270.588 814.227 255.451 814.342C242.571 814.492 227.818 814.95 214.89 813.467C213.224 813.094 210.578 811.558 209.865 809.948C207.16 803.833 210.101 799.591 214.968 796.537Z" fill="#DAD1E0"/>
<path d="M102.078 562.524C104.204 562.464 107.326 562.213 108.881 563.591C110.964 565.437 113.8 572.47 114.885 575.116C120.815 589.573 126.202 604.2 131.967 618.719L175.186 727.476C180.779 741.642 186.474 755.766 192.271 769.85C196.243 779.556 204.498 799.548 206.465 809.371C205.674 810.974 204.404 811.533 202.87 812.533C200.441 812.64 197.305 812.933 195.398 811.079C192.801 808.554 190.968 802.963 189.522 799.59C181.236 780.262 98.0177 572.63 98.4797 567.315C98.6477 565.382 100.761 563.718 102.078 562.524Z" fill="#DAD1E0"/>
<path d="M207.651 811.324C209.121 812.283 210.733 813.019 210.876 814.8L209.496 815.686C207.904 815.569 206.496 815.72 205.386 814.711C205.65 813.038 206.303 812.848 207.651 811.324Z" fill="#FEFEFE"/>
<path d="M724.069 456.719C728.233 458.028 735.094 463.693 741.667 465.66C751.738 468.673 761.456 470.552 771.53 473.171C796.518 479.667 814.368 498.437 825.95 520.998C838.927 546.277 845.219 575.513 851.7 603.153C863.284 652.551 871.955 702.742 881.923 752.568C885.298 769.044 888.796 785.494 892.415 801.918C897.507 825.511 905.789 854.522 892.737 876.647C877.397 881.919 858.043 884.431 841.988 886.384C778.926 894.448 714.968 892.082 652.675 879.381C644.555 877.723 636.309 875.653 628.26 873.999C615.837 871.445 610.805 865.739 608.059 853.538C623.658 857.469 639.291 862.266 655.009 865.805C696.41 875.128 745.913 881.303 784.325 859.1C807.528 845.689 823.56 815.482 829.658 790.415C831.845 781.427 837.826 749.657 837.407 740.399C837.096 737.356 837.395 735.904 837.875 732.981C838.52 729.475 839.053 722.887 839.237 719.054C840.568 691.259 839.39 664.9 837.076 637.106C833.238 591.028 828.152 537.586 796.988 500.726C788.805 491.047 775.904 484.93 763.367 484.443C750.396 483.939 737.329 488.582 727.945 497.854C689.737 535.609 692.041 604.167 689.602 654.125C688.48 677.115 687.095 700.629 686.454 723.038C664.034 722.888 635.992 719.341 612.779 717.908C611.48 711.47 610.492 705.37 608.434 699.088C604.777 687.926 600.364 677.178 596.611 666.017C585.522 633.045 597.707 599.724 609.659 568.842C612.762 559.172 618.966 545.332 622.902 535.854C630.013 518.731 637.421 501.912 646.057 485.498C669.88 489.548 706.708 473.289 724.069 456.719Z" fill="#A0BEDA"/>
<path d="M565.179 205.875L570.119 215.135L571.602 214.214C573.346 214.626 573.696 215.217 574.322 217.051C581.09 224.743 586.985 231.436 594.443 238.514C615.786 258.768 649.484 279.035 678.475 285.115L680.293 285.131L680.724 285.704L679.774 287.586C682.059 287.455 684.654 287.369 686.902 287.104C695.284 279.318 701.323 272.758 713.715 273.434C730.49 274.348 739.163 290.735 737.935 305.57C737.189 314.967 732.698 323.671 725.472 329.724C716.237 337.354 706.897 337.425 695.653 336.104C691.668 371.282 690.056 401.01 705.56 434.084C707.865 435.628 708.551 436.101 709.067 438.84C709.136 439.219 709.197 439.599 709.251 439.981C712.473 445.986 717.946 450.76 722.865 455.451C723.404 456.508 723.012 456.077 724.069 456.719C706.708 473.289 669.88 489.548 646.057 485.498C637.421 501.912 630.013 518.731 622.902 535.854C618.966 545.332 612.762 559.172 609.659 568.842C608.461 567.892 608.295 567.602 607.299 566.466L608.71 564.103C606.992 561.339 605.725 553.611 605.038 550.096C608.374 549.697 611.701 549.231 615.019 548.699C616.206 545.96 612.861 533.017 612.247 528.969C611.639 524.962 611.25 513.67 610.099 510.835L610.471 510.024C609.275 497.722 605.675 490.469 598.355 480.715C593.131 474.55 586.467 469.314 580.155 464.329C577.892 462.541 574.241 459.883 572.411 457.958C552.756 444.544 538.74 422.698 534.335 399.309C533.589 395.348 532.009 382.552 530.804 379.684L529.597 378.274C529.436 375.776 529.601 374.787 529.942 372.283C532.705 350.979 532.301 324.761 532.09 303.213C534.438 306.328 543.265 307.57 548.203 310.569C549.34 307.52 550.288 304.43 552.065 301.736C552.085 292.474 550.389 282.104 549.747 272.793C548.138 249.45 553.51 226.156 565.179 205.875Z" fill="#F5D1BB"/>
<path d="M552.065 301.736L552.055 302.354C551.909 308.381 550.988 309.806 549.304 314.8C547.391 320.47 535.224 336.281 540.694 340.669C547.901 346.452 554.521 347.426 557.627 358.119C558.176 360.011 559.276 363.961 559.353 365.999C559.145 368.104 558.867 367.235 559.863 368.783L560.49 369.064C565.406 378.865 568.271 386.832 575.764 395.325C601.984 425.041 644.792 406.669 672.353 388.881C675.209 387.038 678.308 385.033 681.223 383.396C676.362 401.651 666.211 415.155 650.994 426.23L659.806 457.05C681.324 451.502 688.055 444.94 705.56 434.084C707.865 435.628 708.551 436.101 709.067 438.84C709.136 439.219 709.197 439.599 709.251 439.981C712.473 445.986 717.946 450.76 722.865 455.451C723.404 456.508 723.012 456.077 724.069 456.719C706.708 473.289 669.88 489.548 646.057 485.498C637.421 501.912 630.013 518.731 622.902 535.854C618.966 545.332 612.762 559.172 609.659 568.842C608.461 567.892 608.295 567.602 607.299 566.466L608.71 564.103C606.992 561.339 605.725 553.611 605.038 550.096C608.374 549.697 611.701 549.231 615.019 548.699C616.206 545.96 612.861 533.017 612.247 528.969C611.639 524.962 611.25 513.67 610.099 510.835L610.471 510.024C609.275 497.722 605.675 490.469 598.355 480.715C593.131 474.55 586.467 469.314 580.155 464.329C577.892 462.541 574.241 459.883 572.411 457.958C552.756 444.544 538.74 422.698 534.335 399.309C533.589 395.348 532.009 382.552 530.804 379.684L529.597 378.274C529.436 375.776 529.601 374.787 529.942 372.283C532.705 350.979 532.301 324.761 532.09 303.213C534.438 306.328 543.265 307.57 548.203 310.569C549.34 307.52 550.288 304.43 552.065 301.736Z" fill="url(#paint0_linear_357_3052)"/>
<path d="M529.942 372.283C531.818 373.244 531.554 373.356 531.75 375.633L532.274 375.85L533.162 373.805C536.496 374.757 571.987 416.335 578.713 420.182C580.353 421.12 580.069 422.817 582.644 423.62C586.949 421.34 583.358 411.677 587.4 408.044L588.084 407.939C589.016 409.904 587.132 414.354 586.777 416.435C584.543 429.538 582.418 440.171 573.314 450.492C569.809 454.465 570.768 453.747 572.411 457.958C552.756 444.544 538.74 422.698 534.335 399.309C533.589 395.348 532.009 382.552 530.804 379.684L529.597 378.274C529.436 375.776 529.601 374.787 529.942 372.283Z" fill="#60534A"/>
<path d="M706.577 436.067C707.429 437.365 708.369 438.695 709.251 439.981C712.473 445.986 717.946 450.76 722.865 455.451C718.504 459.023 713.151 462.668 708.43 465.725C704.174 458.983 700.135 450.555 695.651 443.299L706.577 436.067Z" fill="#A0BEDA"/>
<path d="M693.307 444.964L694.282 445.08C696.839 447.55 704.468 462.707 706.629 466.815C701.458 469.862 697.17 472.11 691.814 474.797L686.928 476.894L680.05 451.732C684.328 449.848 689.121 447.171 693.307 444.964Z" fill="#A0BEDA"/>
<path d="M665.466 457.96C669.679 456.321 673.924 454.734 678.02 452.823C681.194 460.383 682.78 469.516 684.777 477.516C678.315 479.955 671.663 481.858 664.889 483.207C664.892 479.982 665.071 474.679 664.86 471.623L665.05 465.345C665.194 462.938 665.4 460.354 665.466 457.96Z" fill="#A0BEDA"/>
<path d="M663.078 483.526C660.346 483.936 649.246 485.511 647.879 482.27C645.27 476.081 654.695 456.648 662.614 459.615C663.816 461.584 663.397 461.723 663.492 464.41L665.05 465.345L664.86 471.623C664.009 473.265 664.37 479.263 664.034 481.562C663.439 479.137 663.679 476.042 663.419 473.465C663.038 476.446 663.109 480.424 663.078 483.526Z" fill="#A0BEDA"/>
<path d="M663.492 464.41L665.05 465.345L664.86 471.623C664.009 473.265 664.37 479.263 664.034 481.562C663.439 479.137 663.679 476.042 663.419 473.465C663.254 471.195 663.453 466.838 663.492 464.41Z" fill="black"/>
<path d="M574.322 217.051C581.09 224.743 586.985 231.436 594.443 238.514C615.786 258.768 649.484 279.035 678.475 285.115C664.306 287.8 642.636 281.078 630.101 274.468C626.776 272.714 618.075 268.541 616.885 264.893C619.081 259.109 603.349 253.922 599.137 251.77C592.82 245.492 575.986 225.182 574.322 217.051Z" fill="#F5D1BB"/>
<path id="" d="M611.032 263.992C589.967 253.755 570.797 266.21 564.598 262.633C563.45 260.227 565.106 256.644 567.174 255.425C575.809 250.334 585.19 250.767 594.803 251.666L599.137 251.77C603.349 253.922 619.081 259.109 616.885 264.893C614.289 264.265 613.649 264.066 611.032 263.992Z" fill="black"/>
<path id="eye-iris" d="M611.032 263.992C613.649 264.066 614.289 264.265 616.885 264.893C618.075 268.541 626.776 272.714 630.101 274.468C642.636 281.078 664.306 287.8 678.475 285.115L680.293 285.131L680.724 285.704L679.774 287.586C652.52 288.655 632.049 281.425 611.032 263.992Z" fill="#3A3231"/>
<path d="M570.119 215.135L571.602 214.214C573.346 214.626 573.696 215.217 574.322 217.051C575.986 225.182 592.82 245.492 599.137 251.77L594.803 251.666C594.324 249.794 586.151 240.153 584.21 237.557C578.55 229.989 574.651 223.338 570.119 215.135Z" fill="#3A3231"/>
<path d="M559.353 365.999C566.843 367.687 574.148 365.96 580.545 361.887C583.063 360.283 585.956 356.802 588.563 355.827L589.44 356.014C589.124 362.608 572.41 368.984 566.636 368.329C565.568 368.208 561.504 368.723 560.49 369.064L559.863 368.783C558.867 367.235 559.145 368.104 559.353 365.999Z" fill="#60534A"/>
<path id="cheek" d="M627.585 311.687C655.206 308.813 655.467 345.701 619.57 348.714C592.492 351.107 591.386 315.851 627.585 311.687Z" fill="#E9A99F"/>
<path id="" d="M582.895 278.645C595.671 274.723 607.176 280.039 615.556 289.73C617.36 288.654 618.248 287.858 620.26 287.769L621.071 288.278C621.33 291.199 618.493 293.969 616.497 295.868C612.885 304.058 607.169 309.375 598.834 312.81C595.599 314.144 589.51 315.265 586.208 313.967C570.794 314.033 571.09 297.516 575.135 286.734C573.012 286.502 573.754 286.94 572.356 285.899L572.392 284.798C574.609 281.638 579.248 279.575 582.895 278.645Z" fill="#3A3231"/>
<path id="eye-white" d="M580.724 282.284C597.105 276.874 606.472 283.853 616.497 295.868C612.885 304.058 607.169 309.375 598.834 312.81C595.599 314.144 589.51 315.265 586.208 313.967C588.146 312.042 589.353 310.773 590.49 308.23C592.811 302.994 592.897 297.037 590.727 291.736C588.52 286.384 585.678 284.353 580.724 282.284Z" fill="#FEFEFE"/>
<path d="M575.135 286.734C573.012 286.502 573.754 286.94 572.356 285.899L572.392 284.798C574.609 281.638 579.248 279.575 582.895 278.645C580.895 280.756 576.808 284.724 575.135 286.734Z" fill="#60534A"/>
<path d="M718.958 287.435L719.797 288.319C719.198 290.16 711.619 294.703 709.364 297.728C706.874 301.07 706.823 301.026 704.868 304.903C706.939 304.946 709.007 305.064 711.069 305.254C713.189 305.469 718.685 306.495 719.902 308.01C718.127 309.226 709.51 307.286 705.771 307.113C701.089 308.31 701.931 314.516 699.45 318.301L698.777 318.01C698.482 316.54 699.027 313.42 699.456 311.913C702.751 300.349 709.062 293.459 718.958 287.435Z" fill="black"/>
<path d="M503.784 729.809C525.99 708.763 580.151 717.129 609.184 719.226C629.422 720.915 649.609 723.11 669.877 724.781C677.34 725.396 688.644 724.275 695.058 725.53C730.8 732.524 772.82 743.83 797.379 772.428C818.515 797.04 819.526 828.839 793.46 849.702C765.964 872.154 730.103 873.859 696.506 870.568C684.536 869.407 672.654 867.475 660.934 864.783C642.658 860.703 552.139 835.93 539.403 825.866C539.563 822.61 539.486 818.727 539.502 815.419L516.972 815.277C511.451 811.247 509.574 809.513 505.189 804.276C503.777 795.51 504.34 783.715 504.004 774.756C503.432 759.463 502.961 745.136 503.784 729.809Z" fill="#8C80B9"/>
<path d="M471.216 927.868C497.658 918.87 524.443 910.911 551.509 904.009C569.912 899.248 592.902 893.594 611.689 890.826C626.009 896.999 638.561 899.758 653.493 903.802C706.737 918.222 758.336 924.882 813.427 923.346C811.187 946.366 805.198 964.685 786.584 979.847C760.077 1001.44 717.418 1006.95 684.451 1011.42C663.423 1014.17 642.354 1016.6 621.252 1018.7C612.038 1019.65 586.054 1021.77 578.869 1024H490.32C484.442 992.845 478.389 958.533 471.216 927.868Z" fill="#DAD1E0"/>
<path d="M815.386 923.107C843.664 921.372 862.407 919.354 889.753 913.655C891.367 928.261 892.147 940.416 891.855 955.291C890.731 981.101 886.418 1000.79 874.803 1024H599.725C608.561 1021.47 625.587 1020.57 635.508 1019.45L678.181 1014.48C735.435 1007.66 813.802 997.092 815.386 923.107Z" fill="#DAD1E0"/>
<path d="M417.074 866.96C429.691 866.714 444.484 866.142 456.942 866.911C467.927 919.284 477.451 971.559 487.951 1024H448.492C441.299 989.032 434.306 954.024 427.512 918.976C424.086 901.738 420.065 884.22 417.074 866.96Z" fill="#FDD87F"/>
<path d="M68.2608 866.93C81.4273 866.927 95.2328 866.705 108.344 866.947C101.722 902.413 93.7045 937.761 86.9966 973.23C83.7957 990.155 79.9855 1007 77.1482 1024H37.0935C45.4734 977.793 55.7736 931.662 64.8208 885.566C66.0358 879.375 67.2209 873.152 68.2608 866.93Z" fill="#FDD87F"/>
<path d="M346.641 1024C359.585 986.855 373.552 968.417 409.773 950.966C416.259 947.823 422.887 944.98 429.634 942.447C435.432 969.729 439.763 996.721 446.109 1024H346.641Z" fill="#DAD1E0"/>
<path d="M756.341 486.634C766.141 485.254 775.739 488.126 784.158 493.189C808.462 507.803 819.597 544.94 825.929 570.895C839.875 628.065 845.622 773.146 814.075 823.647C817.024 807.344 815.377 799.389 808.465 784.417C807.545 782.449 805.349 778.787 804.097 777.032C778.122 740.622 729.398 729.844 688.466 722.318C688.539 702.374 689.963 677.455 691.318 657.512C694.8 606.257 690.186 498.416 756.341 486.634Z" fill="#A0BEDA"/>
<path d="M743.708 606.363C744.876 607.611 747.036 614.612 747.892 616.881C753.076 619.271 755.476 619.681 761.158 620.434C749.244 622.798 747.772 622.681 744.604 634.664L743.727 634.33C743.415 633.024 742.408 627.397 741.943 626.739C738.948 622.49 732.486 621.868 727.983 621.324C732.52 620.046 736.255 618.974 740.526 616.985C742.659 612.766 743.315 611.105 743.708 606.363Z" fill="#F5D1BB"/>
<path d="M791.727 892.791C794.063 892.636 796.65 892.596 799.012 892.508C798.752 902.163 798.216 911.809 797.405 921.433C786.545 921.516 774.84 920.794 763.875 920.448L757.174 919.881C758.014 911.076 758.65 902.252 759.083 893.418C769.968 893.491 780.853 893.282 791.727 892.791Z" fill="#A0BEDA"/>
<path d="M695.578 888.397C706.371 890.365 719.088 891.147 730.151 892.115C728.73 899.713 727.546 908.466 726.302 916.207C714.418 914.901 702.984 912.615 691.282 910.227C692.013 902.655 693.721 895.734 695.578 888.397Z" fill="#A0BEDA"/>
<path d="M847.244 888.203C848.605 888.052 848.138 888.009 849.404 888.389C852.306 892.343 853.252 911.956 853.571 917.781C846.952 918.456 840.258 919.218 833.623 919.609L827.485 920.065C827.801 909.729 827.149 900.966 826.431 890.674C832.05 889.442 841.435 888.726 847.244 888.203Z" fill="#A0BEDA"/>
<path d="M816.943 891.293L823.942 890.775C825.046 899.744 825.513 911.518 825.493 920.473C819.618 920.511 813.287 920.845 807.376 921.061L799.884 921.106C800.491 911.595 800.873 902.07 801.031 892.541C806.328 892.033 811.632 891.617 816.943 891.293Z" fill="#A0BEDA"/>
<path d="M732.155 892.052C739.622 893.014 749.018 892.805 757.016 893.562C756.73 897.316 756.151 917.831 753.994 919.622C746.074 919.12 736.509 917.726 728.511 916.737C730.208 909.349 731.205 899.722 732.155 892.052Z" fill="#A0BEDA"/>
<path d="M663.36 883.856C672.685 885.666 683.943 887.096 693.383 888.346C691.349 895.295 690.042 902.75 688.726 909.872C678.541 907.534 668.375 905.114 658.228 902.612C658.895 896.399 661.081 889.641 663.36 883.856Z" fill="#A0BEDA"/>
<path d="M870.06 884.663C871.285 884.551 870.68 884.499 871.85 885.078C874.762 889.865 875.415 908.012 875.633 914.323L857.641 917.28L856.316 917.086C855.771 916.119 852.91 891.424 852.249 887.522C857.648 886.42 864.511 885.527 870.06 884.663Z" fill="#A0BEDA"/>
<path d="M891.793 879.523L892.52 879.597C898.096 884.092 897.466 902.275 893.753 907.93C891.181 911.847 883.91 912.679 879.615 913.615C877.472 913.085 877.521 907.881 877.268 905.799C876.375 898.438 875.687 891.103 874.524 883.773C880.345 882.637 886.109 881.218 891.793 879.523Z" fill="#A0BEDA"/>
<path d="M637.563 878.319C644.291 879.369 654.061 881.822 660.943 883.322C659.126 888.611 657.365 896.51 655.89 902.12C647.83 899.611 639.904 897.926 631.686 895.099C633.486 888.09 634.422 884.752 637.563 878.319Z" fill="#A0BEDA"/>
<path d="M616.397 872.22C622.914 874.818 628.263 876.228 634.971 877.909C632.536 883.861 631.392 887.619 629.888 893.874L629.582 894.141C627.732 894.618 620.711 892.731 618.694 891.816C608.558 887.218 612.585 879.267 616.397 872.22Z" fill="#A0BEDA"/>
<path d="M929.719 748.337C936.143 754.926 924.204 758.08 944.971 762.877C934.511 765.516 932.427 766.562 930.49 777.057C930.279 777.325 930.068 777.593 929.857 777.861C926.292 765.582 926.114 765.726 913.755 763.061C925.71 760.557 926.508 760.111 929.719 748.337Z" fill="#F5D1BB"/>
<path d="M757.714 262.867C759.643 264.872 759.682 271.333 761.31 273.242C763.533 275.849 770.373 276.856 773.675 277.432C761.736 280.495 761.025 280.339 757.952 292.374C754.37 280.265 753.314 279.933 741.024 277.443C746.724 276.61 748.822 276.653 753.835 273.651C755.976 270.261 756.707 266.711 757.714 262.867Z" fill="#F5D1BB"/>
<path d="M826.809 428.401C832.417 436.181 825.751 436.431 838.853 438.961C830.394 440.924 829.694 441.81 827.022 450.052C823.77 441.158 823.871 440.921 814.614 439.012C823.23 437.007 824.393 436.951 826.809 428.401Z" fill="#F5D1BB"/>
<path d="M774.221 358.771C776.519 358.16 778.89 359.472 779.592 361.744C780.295 364.015 779.079 366.437 776.837 367.229C775.305 367.771 773.599 367.431 772.392 366.343C771.186 365.254 770.672 363.592 771.053 362.012C771.435 360.433 772.651 359.189 774.221 358.771Z" fill="#F5D1BB"/>
<path id="sparkle-4" d="M693.446 231.81C695.626 230.879 698.148 231.887 699.087 234.064C700.026 236.24 699.028 238.766 696.856 239.713C694.671 240.666 692.128 239.661 691.184 237.473C690.24 235.284 691.254 232.745 693.446 231.81Z" fill="#DAD1E0"/>
<path d="M496.203 292.259C498.768 291.85 501.203 293.525 501.74 296.066C502.276 298.608 500.726 301.124 498.214 301.787C496.474 302.246 494.622 301.709 493.397 300.39C492.173 299.071 491.774 297.185 492.361 295.483C492.948 293.782 494.425 292.542 496.203 292.259Z" fill="#F5D1BB"/>
<path d="M307.898 420.228C310.502 419.752 313.005 421.462 313.508 424.062C314.011 426.662 312.327 429.182 309.733 429.712C308.03 430.06 306.272 429.467 305.128 428.159C303.985 426.85 303.632 425.028 304.205 423.387C304.778 421.747 306.188 420.54 307.898 420.228Z" fill="#A0BEDA"/>
<path d="M492.534 392.726C494.843 391.945 497.363 393.081 498.306 395.328C499.25 397.576 498.297 400.17 496.123 401.272C494.572 402.058 492.711 401.912 491.301 400.893C489.891 399.875 489.168 398.154 489.428 396.434C489.688 394.714 490.886 393.283 492.534 392.726Z" fill="#A0BEDA"/>
<path d="M810.559 202.347C812.122 201.837 813.838 202.208 815.051 203.318C816.264 204.428 816.784 206.105 816.414 207.707C816.043 209.308 814.839 210.586 813.262 211.051C810.872 211.755 808.36 210.41 807.621 208.031C806.883 205.652 808.191 203.121 810.559 202.347Z" fill="#F5D1BB"/>
<path d="M100.217 524.731C102.543 523.91 105.097 525.116 105.941 527.434C106.785 529.753 105.603 532.318 103.293 533.184C100.951 534.062 98.343 532.861 97.4878 530.51C96.6326 528.16 97.8587 525.564 100.217 524.731Z" fill="#A0BEDA"/>
<path d="M151.63 498.809C154.024 498.926 155.901 500.91 155.883 503.307C155.866 505.704 153.961 507.661 151.566 507.744C149.925 507.8 148.385 506.953 147.555 505.536C146.724 504.12 146.737 502.362 147.588 500.958C148.438 499.554 149.99 498.729 151.63 498.809Z" fill="#A0BEDA"/>
<path d="M447.242 272.458C448.993 271.411 451.26 271.961 452.336 273.694C453.413 275.427 452.902 277.703 451.188 278.809C450.053 279.541 448.611 279.604 447.416 278.974C446.221 278.343 445.46 277.117 445.423 275.767C445.387 274.417 446.082 273.152 447.242 272.458Z" fill="#F5D1BB"/>
<path d="M436.218 569.757C438.433 571.58 438.383 577.135 439.331 578.854C441.264 582.356 448.217 583.617 451.91 584.524C447.269 586.604 440.57 587.106 439.381 592.253C438.803 594.752 437.803 597.405 436.661 599.701C434.387 595.381 435.472 589.117 429.989 587.47C427.504 586.723 424.966 586.165 422.637 585.033L422.571 584.386C424.428 583.036 429.232 581.855 431.782 581.044C434.71 576.765 434.967 574.749 436.218 569.757Z" fill="#A0BEDA"/>
<path d="M292.492 623.8C293.44 624.762 295.618 631.883 296.443 634.014C301.132 635.901 304.984 637.105 309.783 638.587C288.578 641.193 298.955 647.007 293.021 652.271C292.26 650.217 291.914 647.939 291.017 645.952C288.148 639.596 281.27 639.502 275.268 638.636C279.556 637.336 284.778 636.311 289.349 635.043C290.779 631.718 291.689 627.372 292.492 623.8Z" fill="#F5D1BB"/>
<path d="M529.49 636.319C532.026 635.933 534.407 637.643 534.85 640.17C535.293 642.696 533.637 645.115 531.121 645.614C529.442 645.947 527.715 645.346 526.606 644.042C525.498 642.739 525.182 640.937 525.78 639.334C526.379 637.731 527.798 636.577 529.49 636.319Z" fill="#F5D1BB"/>
<path d="M245.152 736.431C247.619 735.931 250.036 737.487 250.602 739.94C251.169 742.393 249.678 744.85 247.241 745.482C245.606 745.906 243.869 745.408 242.706 744.183C241.542 742.958 241.136 741.197 241.645 739.586C242.153 737.975 243.496 736.767 245.152 736.431Z" fill="#F5D1BB"/>
<path d="M303.446 567.249C305.711 566.197 308.4 567.184 309.447 569.451C310.494 571.718 309.501 574.405 307.231 575.446C304.968 576.484 302.293 575.495 301.25 573.236C300.206 570.976 301.189 568.298 303.446 567.249Z" fill="#A0BEDA"/>
<path d="M365.289 534.852C367.484 533.907 370.03 534.911 370.99 537.099C371.95 539.288 370.963 541.841 368.782 542.816C366.578 543.801 363.995 542.803 363.025 540.592C362.056 538.382 363.072 535.806 365.289 534.852Z" fill="#F5D1BB"/>
<path d="M374.186 567.248C376.173 566.242 378.6 566.977 379.695 568.916C380.79 570.855 380.166 573.312 378.278 574.494C376.979 575.308 375.338 575.342 374.006 574.583C372.674 573.824 371.866 572.394 371.904 570.861C371.942 569.329 372.819 567.941 374.186 567.248Z" fill="#F5D1BB"/>
<path d="M136.297 767.249C137.985 767.005 139.672 767.704 140.691 769.072C141.71 770.44 141.898 772.256 141.18 773.804C140.463 775.351 138.956 776.382 137.254 776.488C134.765 776.644 132.596 774.808 132.34 772.328C132.083 769.847 133.829 767.606 136.297 767.249Z" fill="#DAD1E0"/>
<path d="M62.7397 740.274C65.1036 739.315 67.7974 740.455 68.7547 742.819C69.712 745.184 68.5697 747.877 66.2042 748.832C63.8416 749.786 61.1528 748.646 60.1967 746.284C59.2406 743.922 60.3788 741.232 62.7397 740.274Z" fill="#F5D1BB"/>
<path id="sparkle-2" d="M307.804 494.294C309.412 493.506 311.326 493.688 312.758 494.764C314.189 495.841 314.895 497.629 314.585 499.393C314.275 501.156 313.002 502.597 311.289 503.121C308.915 503.847 306.381 502.627 305.469 500.317C304.557 498.008 305.574 495.385 307.804 494.294Z" fill="#DAD1E0"/>
<path d="M154.477 607.093L154.82 607.614C153.397 607.966 153.871 607.576 153.016 608.468L153.505 609.206L154.812 608.588L154.809 609.33C154.351 610.002 154.363 609.868 153.661 610.374C152.037 609.75 152.601 610.27 151.773 608.927C152.501 607.399 152.292 607.886 154.477 607.093Z" fill="black"/>
<path id="sparkle-1" d="M570.293 485.063L574.811 489.535C572.58 491.986 571.207 493.819 567.778 492.122C565.782 488.68 567.775 487.308 570.293 485.063Z" fill="#FEFEFE"/>
<path d="M189.124 628.656C190.301 633.037 191.7 636.262 193.99 640.13C197.28 641.424 198.068 641.663 201.539 642.282C198.626 645.247 195.689 646.005 192.541 648.599C191.647 651.116 190.693 654.253 189.356 656.497C187.957 653.809 187.278 650.616 185.357 646.944C182.093 645.085 179 644.553 175.386 643.815C179.289 642.517 181.408 641.775 185.01 639.85C187.643 635.553 188.037 633.444 189.124 628.656Z" fill="#A0BEDA"/>
<path d="M389.615 500.823C393.38 497.511 397.585 498.664 399.593 503.111C397.34 510.633 388.946 511.024 389.615 500.823Z" fill="#F5D1BB"/>
<path d="M604.702 548.799L605.038 550.096C605.725 553.611 606.992 561.339 608.71 564.103L607.299 566.466L606.749 569.629C606.774 566.891 603.624 554.541 602.885 550.524L604.702 548.799Z" fill="#3A3231"/>
<path id="sparkle-3" d="M418.839 520.285C420.348 519.64 422.09 519.888 423.358 520.929C424.625 521.97 425.208 523.631 424.868 525.236C424.527 526.841 423.321 528.123 421.74 528.56C419.512 529.176 417.187 527.96 416.422 525.779C415.657 523.597 416.714 521.195 418.839 520.285Z" fill="#DAD1E0"/>
<path d="M921.825 263.848C921.962 262.169 923.152 256.057 924.618 255.476C924.661 257.84 924.588 260.139 924.528 262.5L925.003 263.145C930.125 270.138 932.609 269.55 941.075 270.399C935.111 271.428 932.728 271.781 927.455 274.561C925.568 279.333 924.597 282.032 924.002 287.19C923.143 282.803 922.575 279.309 920.509 275.292C916.661 272.506 912.871 271.775 908.327 270.564C913.763 269.828 919.428 269.534 921.825 263.848Z" fill="#F5D1BB"/>
<path d="M80.7689 677.309C87.5914 678.565 86.6013 682.296 82.5213 686.469C80.5685 686.432 79.7096 686.018 78.2723 684.774C76.4736 681.542 78.5979 679.435 80.7689 677.309Z" fill="#F5D1BB"/>
<path d="M529.597 378.274L530.804 379.684C527.787 408.058 531.589 439.702 550.255 462.344C552.685 465.291 568.758 481.557 571.613 482.618C572.023 484.711 589.796 500.662 590.579 505.928C590.541 505.67 593.963 512.173 594.209 512.514C598.249 522.519 603.171 537.897 604.702 548.799L602.885 550.524L602.785 550.042C601.522 542.688 595.658 518.215 591.594 512.549C585.796 501.881 582.878 498.26 574.811 489.535L570.293 485.063L567.399 482.715C559.53 475.822 552.182 469.078 545.821 460.659C528.36 437.548 525.824 406.137 529.597 378.274Z" fill="#423532"/>
<path d="M891.855 955.291C891.917 956.925 892.012 958.095 892.2 959.719C893.088 956.524 891.597 937.16 892.853 933.973C893.396 937.418 893.22 938.896 893.016 942.371C893.237 940.767 893.468 939.422 893.778 937.834C894.903 965.066 891.344 1000.54 876.77 1024H874.803C886.418 1000.79 890.731 981.101 891.855 955.291Z" fill="black"/>
</g>
<defs>
<linearGradient id="paint0_linear_357_3052" x1="720.392" y1="469.854" x2="506.341" y2="420.029" gradientUnits="userSpaceOnUse">
<stop stop-color="#181717"/>
<stop offset="1" stop-color="#605345"/>
</linearGradient>
<clipPath id="clip0_357_3052">
<rect width="1024" height="1024" fill="white"/>
</clipPath>
</defs>
</svg>
